<svg width="696" height="90" viewBox="0 0 696 90" fill="none" xmlns="http://www.w3.org/2000/svg">
<path d="M3.5 2C3.5 1.17157 2.82843 0.5 2 0.5C1.17157 0.5 0.5 1.17157 0.5 2H3.5ZM0.5 2V22H3.5V2H0.5ZM26 47.5H670V44.5H26V47.5ZM692.5 70V90H695.5V70H692.5ZM670 47.5C682.426 47.5 692.5 57.5736 692.5 70H695.5C695.5 55.9167 684.083 44.5 670 44.5V47.5ZM0.5 22C0.5 36.0833 11.9167 47.5 26 47.5V44.5C13.5736 44.5 3.5 34.4264 3.5 22H0.5Z" fill="url(#paint0_linear_1450_9643)"/>
<defs>
<linearGradient id="paint0_linear_1450_9643" x1="348" y1="2" x2="348" y2="90" gradientUnits="userSpaceOnUse">
<stop stop-color="#F9D423"/>
<stop offset="0.489583" stop-color="#FC9239"/>
<stop offset="1" stop-color="#FF4E50"/>
</linearGradient>
</defs>
</svg>
