<svg width="48" height="118" viewBox="0 0 48 118" fill="none" xmlns="http://www.w3.org/2000/svg">
<path d="M23.032 39.5956C19.3413 39.5956 16.4613 38.977 14.392 37.7396C12.3013 36.481 11.256 34.3263 11.256 31.2756C11.256 28.225 12.3013 26.081 14.392 24.8436C16.4613 23.585 19.3413 22.9556 23.032 22.9556C26.7653 22.9556 29.688 23.585 31.8 24.8436C33.8907 26.081 34.936 28.225 34.936 31.2756C34.936 34.3263 33.8907 36.481 31.8 37.7396C29.688 38.977 26.7653 39.5956 23.032 39.5956ZM23.032 26.5396C21.304 26.5396 19.8427 26.657 18.648 26.8916C17.4533 27.105 16.4827 27.553 15.736 28.2356C14.968 28.9183 14.584 29.9316 14.584 31.2756C14.584 32.6196 14.968 33.633 15.736 34.3156C16.4827 34.9983 17.4533 35.457 18.648 35.6916C19.8427 35.905 21.304 36.0116 23.032 36.0116C24.824 36.0116 26.328 35.905 27.544 35.6916C28.76 35.4783 29.7413 35.0303 30.488 34.3476C31.2347 33.6436 31.608 32.6196 31.608 31.2756C31.608 29.9316 31.2347 28.9183 30.488 28.2356C29.7413 27.5316 28.76 27.073 27.544 26.8596C26.328 26.6463 24.824 26.5396 23.032 26.5396ZM17.08 6.55162C16.0987 6.78629 15.3627 7.21296 14.872 7.83162C14.3813 8.45029 14.136 9.31429 14.136 10.4236C14.136 12.109 14.7867 13.3676 16.088 14.1996C17.368 15.0316 19.5013 15.469 22.488 15.5116C21.5493 14.957 20.824 14.1463 20.312 13.0796C19.8 12.013 19.544 10.861 19.544 9.62362C19.544 8.21562 19.8533 6.97829 20.472 5.91162C21.0693 4.82362 21.944 3.98096 23.096 3.38363C24.248 2.76496 25.624 2.45562 27.224 2.45562C28.7173 2.45562 30.0507 2.75429 31.224 3.35162C32.3973 3.92762 33.3253 4.79162 34.008 5.94362C34.6693 7.09562 35 8.48229 35 10.1036C35 12.301 34.52 14.029 33.56 15.2876C32.5787 16.525 31.2027 17.3996 29.432 17.9116C27.6613 18.4023 25.4533 18.6476 22.808 18.6476C15 18.6476 11.096 15.8956 11.096 10.3916C11.096 8.25829 11.672 6.58362 12.824 5.36762C13.976 4.13029 15.3947 3.40496 17.08 3.19162V6.55162ZM22.616 10.4236C22.616 11.725 23.0107 12.8343 23.8 13.7516C24.568 14.6476 25.688 15.0956 27.16 15.0956C28.632 15.0956 29.8053 14.6796 30.68 13.8476C31.5333 12.9943 31.96 11.8103 31.96 10.2956C31.96 8.95162 31.544 7.89562 30.712 7.12762C29.88 6.33829 28.7707 5.94362 27.384 5.94362C25.9333 5.94362 24.7813 6.32762 23.928 7.09562C23.0533 7.84229 22.616 8.95162 22.616 10.4236Z" fill="url(#paint0_linear_2012_1668)"/>
<line x1="24.5" y1="58" x2="24.5" y2="118" stroke="url(#paint1_linear_2012_1668)"/>
<defs>
<linearGradient id="paint0_linear_2012_1668" x1="0" y1="21" x2="48" y2="21" gradientUnits="userSpaceOnUse">
<stop stop-color="#F9D423"/>
<stop offset="0.489583" stop-color="#FC9239"/>
<stop offset="1" stop-color="#FF4E50"/>
</linearGradient>
<linearGradient id="paint1_linear_2012_1668" x1="24" y1="88" x2="23" y2="88" gradientUnits="userSpaceOnUse">
<stop stop-color="#F9D423"/>
<stop offset="0.489583" stop-color="#FC9239"/>
<stop offset="1" stop-color="#FF4E50"/>
</linearGradient>
</defs>
</svg>
