<svg width="48" height="116" viewBox="0 0 48 116" fill="none" xmlns="http://www.w3.org/2000/svg">
<path d="M23.032 37.83C19.3413 37.83 16.4613 37.2113 14.392 35.974C12.3013 34.7153 11.256 32.5607 11.256 29.51C11.256 26.4593 12.3013 24.3153 14.392 23.078C16.4613 21.8193 19.3413 21.19 23.032 21.19C26.7653 21.19 29.688 21.8193 31.8 23.078C33.8907 24.3153 34.936 26.4593 34.936 29.51C34.936 32.5607 33.8907 34.7153 31.8 35.974C29.688 37.2113 26.7653 37.83 23.032 37.83ZM23.032 24.774C21.304 24.774 19.8427 24.8913 18.648 25.126C17.4533 25.3393 16.4827 25.7873 15.736 26.47C14.968 27.1527 14.584 28.166 14.584 29.51C14.584 30.854 14.968 31.8673 15.736 32.55C16.4827 33.2327 17.4533 33.6913 18.648 33.926C19.8427 34.1393 21.304 34.246 23.032 34.246C24.824 34.246 26.328 34.1393 27.544 33.926C28.76 33.7127 29.7413 33.2647 30.488 32.582C31.2347 31.878 31.608 30.854 31.608 29.51C31.608 28.166 31.2347 27.1527 30.488 26.47C29.7413 25.766 28.76 25.3073 27.544 25.094C26.328 24.8807 24.824 24.774 23.032 24.774ZM17.432 17.394C15.448 17.266 13.9013 16.5087 12.792 15.122C11.6827 13.714 11.128 11.922 11.128 9.746C11.128 8.25267 11.3947 6.962 11.928 5.874C12.4613 4.786 13.1867 3.96467 14.104 3.41C15.0213 2.85533 16.056 2.578 17.208 2.578C18.5307 2.578 19.6613 2.93 20.6 3.634C21.5387 4.338 22.168 5.18067 22.488 6.162H22.616C23 4.90333 23.704 3.922 24.728 3.218C25.7307 2.514 27.0213 2.162 28.6 2.162C29.8587 2.162 30.9787 2.45 31.96 3.026C32.9413 3.602 33.72 4.45533 34.296 5.586C34.8507 6.71667 35.128 8.07133 35.128 9.65C35.128 11.954 34.5413 13.8527 33.368 15.346C32.1733 16.818 30.4667 17.6073 28.248 17.714V14.194C29.3787 14.1087 30.3067 13.6713 31.032 12.882C31.736 12.0927 32.088 11.026 32.088 9.682C32.088 8.38067 31.736 7.378 31.032 6.674C30.3067 5.97 29.3787 5.618 28.248 5.618C26.7547 5.618 25.6987 6.098 25.08 7.058C24.44 7.99667 24.12 9.44733 24.12 11.41V12.242H21.112V11.378C21.0907 9.65 20.8027 8.338 20.248 7.442C19.6933 6.52467 18.8187 6.066 17.624 6.066C16.6 6.066 15.7893 6.39667 15.192 7.058C14.5733 7.71933 14.264 8.658 14.264 9.874C14.264 11.0687 14.5733 11.9967 15.192 12.658C15.7893 13.3193 16.536 13.714 17.432 13.842V17.394Z" fill="url(#paint0_linear_2012_570)"/>
<line x1="24.5" y1="56" x2="24.5" y2="116" stroke="url(#paint1_linear_2012_570)"/>
<defs>
<linearGradient id="paint0_linear_2012_570" x1="0" y1="20" x2="48" y2="20" gradientUnits="userSpaceOnUse">
<stop stop-color="#F9D423"/>
<stop offset="0.489583" stop-color="#FC9239"/>
<stop offset="1" stop-color="#FF4E50"/>
</linearGradient>
<linearGradient id="paint1_linear_2012_570" x1="24" y1="86" x2="23" y2="86" gradientUnits="userSpaceOnUse">
<stop stop-color="#F9D423"/>
<stop offset="0.489583" stop-color="#FC9239"/>
<stop offset="1" stop-color="#FF4E50"/>
</linearGradient>
</defs>
</svg>
