<svg width="48" height="115" viewBox="0 0 48 115" fill="none" xmlns="http://www.w3.org/2000/svg">
<path d="M23.032 37.0644C19.3413 37.0644 16.4613 36.4457 14.392 35.2084C12.3013 33.9497 11.256 31.795 11.256 28.7444C11.256 25.6937 12.3013 23.5497 14.392 22.3124C16.4613 21.0537 19.3413 20.4244 23.032 20.4244C26.7653 20.4244 29.688 21.0537 31.8 22.3124C33.8907 23.5497 34.936 25.6937 34.936 28.7444C34.936 31.795 33.8907 33.9497 31.8 35.2084C29.688 36.4457 26.7653 37.0644 23.032 37.0644ZM23.032 24.0084C21.304 24.0084 19.8427 24.1257 18.648 24.3604C17.4533 24.5737 16.4827 25.0217 15.736 25.7044C14.968 26.387 14.584 27.4004 14.584 28.7444C14.584 30.0884 14.968 31.1017 15.736 31.7844C16.4827 32.467 17.4533 32.9257 18.648 33.1604C19.8427 33.3737 21.304 33.4804 23.032 33.4804C24.824 33.4804 26.328 33.3737 27.544 33.1604C28.76 32.947 29.7413 32.499 30.488 31.8164C31.2347 31.1124 31.608 30.0884 31.608 28.7444C31.608 27.4004 31.2347 26.387 30.488 25.7044C29.7413 25.0004 28.76 24.5417 27.544 24.3284C26.328 24.115 24.824 24.0084 23.032 24.0084ZM30.04 14.5484C28.2693 12.5004 26.8187 10.8897 25.688 9.71637C24.536 8.52171 23.3413 7.52971 22.104 6.74037C20.8667 5.95104 19.6293 5.55637 18.392 5.55637C17.112 5.55637 16.1093 5.86571 15.384 6.48437C14.6587 7.08171 14.296 8.03104 14.296 9.33237C14.296 10.591 14.7013 11.5724 15.512 12.2764C16.3013 12.959 17.368 13.3217 18.712 13.3644V16.8844C16.28 16.8204 14.424 16.095 13.144 14.7084C11.8427 13.3004 11.192 11.519 11.192 9.36437C11.192 7.03904 11.832 5.22571 13.112 3.92437C14.392 2.60171 16.0987 1.94037 18.232 1.94037C19.768 1.94037 21.2507 2.33504 22.68 3.12437C24.088 3.89237 25.3573 4.82037 26.488 5.90837C27.5973 6.97504 28.888 8.34037 30.36 10.0044L31.64 11.4444L31.64 1.30037H34.68V16.8524H32.024L30.04 14.5484Z" fill="url(#paint0_linear_2012_607)"/>
<line x1="24.5" y1="55" x2="24.5" y2="115" stroke="url(#paint1_linear_2012_607)"/>
<defs>
<linearGradient id="paint0_linear_2012_607" x1="0" y1="19.5" x2="48" y2="19.5" gradientUnits="userSpaceOnUse">
<stop stop-color="#F9D423"/>
<stop offset="0.489583" stop-color="#FC9239"/>
<stop offset="1" stop-color="#FF4E50"/>
</linearGradient>
<linearGradient id="paint1_linear_2012_607" x1="24" y1="85" x2="23" y2="85" gradientUnits="userSpaceOnUse">
<stop stop-color="#F9D423"/>
<stop offset="0.489583" stop-color="#FC9239"/>
<stop offset="1" stop-color="#FF4E50"/>
</linearGradient>
</defs>
</svg>
