<svg width="48" height="108" viewBox="0 0 48 108" fill="none" xmlns="http://www.w3.org/2000/svg">
<path d="M23.032 29.9237C19.3413 29.9237 16.4613 29.3051 14.392 28.0677C12.3013 26.8091 11.256 24.6544 11.256 21.6037C11.256 18.5531 12.3013 16.4091 14.392 15.1717C16.4613 13.9131 19.3413 13.2837 23.032 13.2837C26.7653 13.2837 29.688 13.9131 31.8 15.1717C33.8907 16.4091 34.936 18.5531 34.936 21.6037C34.936 24.6544 33.8907 26.8091 31.8 28.0677C29.688 29.3051 26.7653 29.9237 23.032 29.9237ZM23.032 16.8677C21.304 16.8677 19.8427 16.9851 18.648 17.2197C17.4533 17.4331 16.4827 17.8811 15.736 18.5637C14.968 19.2464 14.584 20.2597 14.584 21.6037C14.584 22.9477 14.968 23.9611 15.736 24.6437C16.4827 25.3264 17.4533 25.7851 18.648 26.0197C19.8427 26.2331 21.304 26.3397 23.032 26.3397C24.824 26.3397 26.328 26.2331 27.544 26.0197C28.76 25.8064 29.7413 25.3584 30.488 24.6757C31.2347 23.9717 31.608 22.9477 31.608 21.6037C31.608 20.2597 31.2347 19.2464 30.488 18.5637C29.7413 17.8597 28.76 17.4011 27.544 17.1877C26.328 16.9744 24.824 16.8677 23.032 16.8677ZM15 9.90375H11.672V3.24775L35 3.24775V6.92775L15 6.92775V9.90375Z" fill="url(#paint0_linear_2011_1432)"/>
<line x1="24.5" y1="48" x2="24.5" y2="108" stroke="url(#paint1_linear_2011_1432)"/>
<defs>
<linearGradient id="paint0_linear_2011_1432" x1="0" y1="16" x2="48" y2="16" gradientUnits="userSpaceOnUse">
<stop stop-color="#F9D423"/>
<stop offset="0.489583" stop-color="#FC9239"/>
<stop offset="1" stop-color="#FF4E50"/>
</linearGradient>
<linearGradient id="paint1_linear_2011_1432" x1="24" y1="78" x2="23" y2="78" gradientUnits="userSpaceOnUse">
<stop stop-color="#F9D423"/>
<stop offset="0.489583" stop-color="#FC9239"/>
<stop offset="1" stop-color="#FF4E50"/>
</linearGradient>
</defs>
</svg>
