<svg width="48" height="118" viewBox="0 0 48 118" fill="none" xmlns="http://www.w3.org/2000/svg">
<path d="M23.032 39.6894C19.3413 39.6894 16.4613 39.0707 14.392 37.8334C12.3013 36.5747 11.256 34.42 11.256 31.3694C11.256 28.3187 12.3013 26.1747 14.392 24.9374C16.4613 23.6787 19.3413 23.0494 23.032 23.0494C26.7653 23.0494 29.688 23.6787 31.8 24.9374C33.8907 26.1747 34.936 28.3187 34.936 31.3694C34.936 34.42 33.8907 36.5747 31.8 37.8334C29.688 39.0707 26.7653 39.6894 23.032 39.6894ZM23.032 26.6334C21.304 26.6334 19.8427 26.7507 18.648 26.9854C17.4533 27.1987 16.4827 27.6467 15.736 28.3294C14.968 29.012 14.584 30.0254 14.584 31.3694C14.584 32.7134 14.968 33.7267 15.736 34.4094C16.4827 35.092 17.4533 35.5507 18.648 35.7854C19.8427 35.9987 21.304 36.1054 23.032 36.1054C24.824 36.1054 26.328 35.9987 27.544 35.7854C28.76 35.572 29.7413 35.124 30.488 34.4414C31.2347 33.7374 31.608 32.7134 31.608 31.3694C31.608 30.0254 31.2347 29.012 30.488 28.3294C29.7413 27.6254 28.76 27.1667 27.544 26.9534C26.328 26.74 24.824 26.6334 23.032 26.6334ZM30.136 19.6374L27.384 19.6374L11.96 8.88537V4.46937H26.968V1.49337H30.136V4.46937H35V8.05337H30.136L30.136 19.6374ZM15.672 7.89337L26.968 15.4454L26.968 7.89337H15.672Z" fill="url(#paint0_linear_2012_444)"/>
<line x1="24.5" y1="58" x2="24.5" y2="118" stroke="url(#paint1_linear_2012_444)"/>
<defs>
<linearGradient id="paint0_linear_2012_444" x1="0" y1="21" x2="48" y2="21" gradientUnits="userSpaceOnUse">
<stop stop-color="#F9D423"/>
<stop offset="0.489583" stop-color="#FC9239"/>
<stop offset="1" stop-color="#FF4E50"/>
</linearGradient>
<linearGradient id="paint1_linear_2012_444" x1="24" y1="88" x2="23" y2="88" gradientUnits="userSpaceOnUse">
<stop stop-color="#F9D423"/>
<stop offset="0.489583" stop-color="#FC9239"/>
<stop offset="1" stop-color="#FF4E50"/>
</linearGradient>
</defs>
</svg>
