<svg width="48" height="117" viewBox="0 0 48 117" fill="none" xmlns="http://www.w3.org/2000/svg">
<path d="M23.032 39.0487C19.3413 39.0487 16.4613 38.4301 14.392 37.1927C12.3013 35.9341 11.256 33.7794 11.256 30.7287C11.256 27.6781 12.3013 25.5341 14.392 24.2967C16.4613 23.0381 19.3413 22.4087 23.032 22.4087C26.7653 22.4087 29.688 23.0381 31.8 24.2967C33.8907 25.5341 34.936 27.6781 34.936 30.7287C34.936 33.7794 33.8907 35.9341 31.8 37.1927C29.688 38.4301 26.7653 39.0487 23.032 39.0487ZM23.032 25.9927C21.304 25.9927 19.8427 26.1101 18.648 26.3447C17.4533 26.5581 16.4827 27.0061 15.736 27.6887C14.968 28.3714 14.584 29.3847 14.584 30.7287C14.584 32.0727 14.968 33.0861 15.736 33.7687C16.4827 34.4514 17.4533 34.9101 18.648 35.1447C19.8427 35.3581 21.304 35.4647 23.032 35.4647C24.824 35.4647 26.328 35.3581 27.544 35.1447C28.76 34.9314 29.7413 34.4834 30.488 33.8007C31.2347 33.0967 31.608 32.0727 31.608 30.7287C31.608 29.3847 31.2347 28.3714 30.488 27.6887C29.7413 26.9847 28.76 26.5261 27.544 26.3127C26.328 26.0994 24.824 25.9927 23.032 25.9927ZM14.808 3.50875V14.2287H21.176C20.5787 13.7807 20.0773 13.1194 19.672 12.2448C19.2667 11.3487 19.064 10.3994 19.064 9.39675C19.064 7.60475 19.448 6.15408 20.216 5.04475C20.984 3.91408 21.9547 3.11408 23.128 2.64475C24.3013 2.15408 25.5387 1.90875 26.84 1.90875C28.4187 1.90875 29.8267 2.21808 31.064 2.83675C32.28 3.43408 33.24 4.34075 33.944 5.55675C34.648 6.75142 35 8.22342 35 9.97275C35 12.2981 34.424 14.1647 33.272 15.5727C32.12 16.9807 30.5947 17.8234 28.696 18.1007V14.5487C29.6987 14.3141 30.4987 13.7914 31.096 12.9807C31.672 12.1701 31.96 11.1567 31.96 9.94075C31.96 8.42608 31.5013 7.29542 30.584 6.54875C29.6667 5.78075 28.4507 5.39675 26.936 5.39675C25.4 5.39675 24.2267 5.78075 23.416 6.54875C22.584 7.31675 22.168 8.44742 22.168 9.94075C22.168 10.9861 22.4347 11.8714 22.968 12.5967C23.48 13.3007 24.184 13.8127 25.08 14.1327V17.5887H11.608V3.50875H14.808Z" fill="url(#paint0_linear_2012_1108)"/>
<line x1="24.5" y1="57" x2="24.5" y2="117" stroke="url(#paint1_linear_2012_1108)"/>
<defs>
<linearGradient id="paint0_linear_2012_1108" x1="0" y1="20.5" x2="48" y2="20.5" gradientUnits="userSpaceOnUse">
<stop stop-color="#F9D423"/>
<stop offset="0.489583" stop-color="#FC9239"/>
<stop offset="1" stop-color="#FF4E50"/>
</linearGradient>
<linearGradient id="paint1_linear_2012_1108" x1="24" y1="87" x2="23" y2="87" gradientUnits="userSpaceOnUse">
<stop stop-color="#F9D423"/>
<stop offset="0.489583" stop-color="#FC9239"/>
<stop offset="1" stop-color="#FF4E50"/>
</linearGradient>
</defs>
</svg>
